<svg xmlns="http://www.w3.org/2000/svg" xmlns:se="http://svg-edit.googlecode.com" xmlns:xlink="http://www.w3.org/1999/xlink" xmlns:dc="http://purl.org/dc/elements/1.1/" xmlns:cc="http://creativecommons.org/ns#" xmlns:rdf="http://www.w3.org/1999/02/22-rdf-syntax-ns#" xmlns:inkscape="http://www.inkscape.org/namespaces/inkscape" width="777" height="480">                                    <title>my vector image</title>                                    <!-- Created with Vector Paint - http://www.vectorpaint.yaks.com/ https://chrome.google.com/webstore/detail/hnbpdiengicdefcjecjbnjnoifekhgdo -->                                    <rect id="backgroundrect" width="100%" height="100%" x="0" y="0" fill="#FFFFFF" stroke="none"/>                                <g class="currentLayer" style=""><title>Layer 1</title><polyline fill="none" stroke="#222222" stroke-width="2" stroke-linejoin="round" stroke-dashoffset="" fill-rule="nonzero" marker-start="" marker-mid="" marker-end="" id="svg_1" points="231.97455177996687,239.79190275388618 232.5525864556749,239.79190275388618 233.130621131383,239.79190275388618 235.44275983421502,238.0577987267621 240.0670372398791,232.27745196968198 246.4254186726673,224.18496650976977 256.25200815970345,210.31213429277744 267.8127016738638,195.2832327243691 278.79536051231605,183.1445045345008 288.0439153236442,174.4739843988806 293.2462274050164,169.8497069932165 296.71443545926445,166.38149893896843 298.44853948638854,165.2254295875524 298.44853948638854,165.80346426326045 297.8705048106805,171.00577634463252 296.71443545926445,178.52022712883672 294.98033143214036,188.92485129158095 293.2462274050164,201.64161415715725 290.93408870218434,215.5144463741496 289.19998467506025,227.07513988830988 287.4658806479363,235.16762534822203 286.8878459722282,238.63583340247015 286.30981129652025,239.79190275388618 285.7317766208122,240.3699374295942 284.57570726939616,238.63583340247015 282.2635685665641,233.433521321098 278.79536051231605,228.8092439154339 274.7491177823599,224.18496650976977 269.54680570098776,221.2947931312297 264.9225282953237,218.98265442839767 262.61038959249163,217.24855040127363 263.1884242681997,217.24855040127363 265.50056297103174,217.24855040127363 271.28090972811185,217.82658507698164 278.217325836608,217.82658507698164 286.8878459722282,216.67051572556562 295.5583661078484,215.5144463741496 304.22888624346865,214.9364116984416 314.0554757305049,214.9364116984416 320.41385716329296,214.9364116984416 325.0381345689572,217.24855040127363 327.3502732717892,219.56068910410568 327.3502732717892,223.02889715835374 327.3502732717892,227.6531745640179 326.1942039203732,232.27745196968198 323.88206521754114,237.47976405105408 322.72599586612495,240.3699374295942 321.569926514709,242.10404145671822 320.991891839001,242.10404145671822 321.569926514709,242.10404145671822 324.4600998932491,239.79190275388618 328.5063426232053,236.32369469963805 333.70865470457727,232.27745196968198 338.3329321102415,231.12138261826595 342.95720951590556,230.54334794255794 346.4254175701536,230.54334794255794 348.73755627298567,231.12138261826595 351.0496949758177,233.433521321098 353.9398683543578,237.47976405105408 357.4080764086059,243.83814548384225 360.87628446285396,249.61849224092236 366.0785965442261,251.93063094375444 370.12483927418214,251.93063094375444 376.4832207069703,250.7745615923384 381.68553278834247,249.04045756521435 386.3098101940065,246.7283188623823 390.93408759967065,244.41618015955027 395.55836500533485,241.5260067810102 399.0265730595829,237.47976405105408 402.494781113831,231.69941729397397 403.650850465247,225.34103586118576 402.494781113831,220.13872377981366 399.6046077352909,218.40461975268965 397.2924690324588,217.24855040127363 394.4022956539188,216.0924810498576 391.5121222753787,214.9364116984416 386.3098101940065,214.35837702273358 382.84160213975844,213.78034234702557 378.79535940980236,216.67051572556562 375.3271513555543,223.02889715835374 372.4369779770142,229.96531326684996 370.7028739498902,235.16762534822203 370.12483927418214,238.63583340247015 370.7028739498902,239.79190275388618 371.8589433013062,240.3699374295942 376.4832207069703,241.5260067810102 382.2635674640506,242.10404145671822 388.04391422113065,242.10404145671822 393.82426097821076,239.21386807817817 400.18264241099894,234.58959067251402 406.5410238437871,226.4971052126019 412.3213706008672,214.9364116984416 415.7895786551153,200.48554480574123 417.52368268223927,186.6127125887489 419.8358213850714,177.9421924531287 422.14796008790347,175.05201907458863 423.3040294393195,173.8959497231726 423.3040294393195,174.4739843988806 422.14796008790347,177.9421924531287 419.8358213850714,186.0346779130409 416.36761333082325,199.90751013003322 411.74333592515916,215.5144463741496 409.4311972223271,228.8092439154339 410.0092318980352,238.0577987267621 414.63350930369927,245.5722495109663 418.6797520336553,249.04045756521435 422.14796008790347,249.61849224092236 426.77223749356756,248.46242288950634 431.9745495749396,243.83814548384225 437.17686165631176,238.63583340247015 442.3791737376839,230.54334794255794 446.4254164676401,223.60693183406173 449.89362452188817,218.40461975268965 453.9398672518441,214.9364116984416 455.09593660326016,214.35837702273358 454.5179019275522,218.40461975268965 453.36183257613624,227.07513988830988 451.04969387330414,238.63583340247015 448.7375551704721,251.3525962680464 445.269347116224,264.64739380933077 441.2231043862679,279.6762953777391 438.3329310077278,294.70519694614745 436.02079230489574,305.6878557845997 434.8647229534797,312.0462372173879 434.8647229534797,314.9364105959279 433.13061892635574,317.24854929876 430.8184802235236,318.98265332588403 427.3502721692755,319.56068800159204 422.7259947636114,318.98265332588403 416.36761333082325,314.9364105959279 411.74333592515916,308.57802916313983 408.2751278709111,302.7976824060596 405.96298916807905,295.8612662975635 404.806919816663,287.76878083765126 404.806919816663,280.83236472915513 407.11905851949507,276.208087323491 411.74333592515916,272.1618445935349 418.10171735794734,268.69363653928684 426.1942028178595,265.8034631607468 434.28668827777176,264.0693591336227 441.2231043862679,262.9132897822067 449.31558984618005,262.33525510649866 455.6739712789682,261.75722043079065 462.0323527117564,262.33525510649866 466.0785954417124,262.9132897822067 467.8126994688365,264.0693591336227 468.39073414454447,264.64739380933077 468.39073414454447,267.5375671878708 468.39073414454447,271.0057752421189 467.2346647931285,274.47398329636695 466.0785954417124,275.630052647783 464.9225260902964,276.208087323491 463.76645673888044,276.786121999199 462.0323527117564,276.786121999199 457.40807530609214,276.786121999199 449.31558984618005,276.786121999199 436.02079230489574,274.47398329636695 418.10171735794734,269.27167121499485 396.13639968104286,262.33525510649866 376.4832207069703,257.7109777008346 357.98611108431385,255.3988389980025 337.17686275882545,254.2427696465865 316.36761443333694,253.0867002951705 290.3560540264763,251.93063094375444 262.61038959249163,249.61849224092236 243.53524529412718,247.88438821379833 231.97455177996687,247.30635353809032 224.46010099576276,247.30635353809032 220.41385826580668,247.30635353809032 218.6797542386826,247.30635353809032 218.10171956297458,247.30635353809032 217.52368488726657,247.30635353809032 " style="color: rgb(0, 0, 0);"/></g></svg>