<svg xmlns="http://www.w3.org/2000/svg" xmlns:se="http://svg-edit.googlecode.com" xmlns:xlink="http://www.w3.org/1999/xlink" xmlns:dc="http://purl.org/dc/elements/1.1/" xmlns:cc="http://creativecommons.org/ns#" xmlns:rdf="http://www.w3.org/1999/02/22-rdf-syntax-ns#" xmlns:inkscape="http://www.inkscape.org/namespaces/inkscape" width="777" height="480">                                    <title>my vector image</title>                                    <!-- Created with Vector Paint - http://www.vectorpaint.yaks.com/ https://chrome.google.com/webstore/detail/hnbpdiengicdefcjecjbnjnoifekhgdo -->                                    <rect id="backgroundrect" width="100%" height="100%" x="0" y="0" fill="#FFFFFF" stroke="none"/>                                <g class="currentLayer" style=""><title>Layer 1</title><polyline fill="none" stroke="#222222" stroke-width="2" stroke-linejoin="round" stroke-dashoffset="" fill-rule="nonzero" marker-start="" marker-mid="" marker-end="" id="svg_1" points="195.5583672103621,257.7109777008346 196.71443656177811,257.7109777008346 196.71443656177811,258.2890123765426 200.18264461602618,258.2890123765426 205.96299137310635,257.13294302512656 214.0554768330185,253.66473497087847 227.3502743743028,246.7283188623823 244.69131464554326,234.011555996806 260.2982508896596,218.98265442839767 276.483221809484,203.3757181842813 289.7780193507683,188.92485129158095 300.1826435135125,177.3641577774207 304.8069209191766,172.16184569604857 305.9629902705926,171.58381102034056 305.3849555948847,176.20808842600462 303.6508515677606,181.41040050737678 301.33871286492854,191.236989994413 296.71443545926445,205.10982221140534 291.5121233778923,220.7167584555217 286.30981129652025,235.16762534822203 280.52946453944,247.88438821379833 275.90518713377594,255.3988389980025 273.01501375523594,257.13294302512656 272.4369790795279,257.13294302512656 270.7028750524039,254.82080432229452 267.2346669981557,250.19652691663038 262.0323549167837,244.99421483525828 256.25200815970356,240.9479721053022 252.7838001054554,239.79190275388618 252.2057654297474,239.79190275388618 252.7838001054554,239.79190275388618 253.93986945687143,239.79190275388618 262.0323549167837,238.63583340247015 273.01501375523594,236.90172937534606 286.30981129652025,235.16762534822203 300.7606781892206,233.433521321098 314.0554757305049,232.85548664539 323.88206521754114,232.85548664539 330.8184813260373,233.433521321098 333.7086547045774,234.58959067251402 334.28668938028534,235.74566002393004 334.28668938028534,238.05779872676214 333.7086547045774,241.5260067810102 330.8184813260373,245.5722495109663 328.5063426232053,248.46242288950634 326.77223859608114,249.61849224092236 324.4600998932491,250.77456159233844 323.3040305418331,251.93063094375444 321.56992651470915,253.66473497087847 320.41385716329296,254.82080432229452 321.56992651470915,251.93063094375444 325.0381345689572,248.46242288950634 329.0843772989131,244.99421483525828 334.28668938028534,240.9479721053022 340.06703613736545,237.47976405105408 347.0034522458617,235.74566002393004 353.36183367864976,235.74566002393004 357.98611108431385,236.32369469963805 361.454319138562,238.05779872676214 363.188423165686,239.79190275388618 363.7664578413941,240.3699374295942 363.7664578413941,242.68207613242623 363.7664578413941,247.30635353809032 363.7664578413941,252.50866561946248 363.188423165686,256.55490834941855 363.188423165686,258.8670470522506 363.7664578413941,258.8670470522506 364.9225271928101,259.4450817279586 368.39073524705816,259.4450817279586 373.01501265272225,260.0231164036666 378.2173247340944,260.0231164036666 385.15374084259054,258.8670470522506 393.24622630250263,257.13294302512656 401.33871176241485,255.3988389980025 407.697093195203,252.50866561946248 411.74333592515916,250.19652691663038 414.0554746279912,246.7283188623823 414.63350930369916,244.41618015955027 413.47743995228313,241.5260067810102 412.3213706008671,239.21386807817817 410.00923189803507,238.05779872676214 408.2751278709111,237.47976405105408 406.54102384378706,237.47976405105408 404.806919816663,237.47976405105408 401.33871176241485,237.47976405105408 396.7144343567508,239.79190275388618 390.93408759967065,242.10404145671822 384.57570616688247,246.1502841866743 380.52946343692645,249.61849224092236 378.79535940980236,253.0867002951705 378.79535940980236,255.3988389980025 379.37339408551037,256.55490834941855 382.2635674640504,258.2890123765426 386.3098101940065,259.4450817279586 390.3560529239625,259.4450817279586 396.13639968104286,259.4450817279586 403.072815789539,257.13294302512656 412.3213706008671,252.50866561946248 422.7259947636114,247.30635353809032 429.0843761963995,243.26011080813424 434.8647229534797,238.63583340247015 437.7548963320197,234.58959067251402 441.80113906197585,227.65317456401786 444.1132777648079,221.2947931312297 445.847381791932,215.5144463741496 447.5814858190559,212.0462383199015 448.159520494764,210.31213429277747 448.737555170472,208.5780302656534 448.737555170472,207.9999955899454 449.31558984618005,207.4219609142374 449.893624521888,206.26589156282137 449.893624521888,205.10982221140534 450.471659197596,205.10982221140534 450.471659197596,205.68785688711336 450.471659197596,206.26589156282137 448.737555170472,208.5780302656534 447.00345114334795,211.46820364419352 444.69131244051596,214.9364116984416 441.2231043862678,220.7167584555217 437.7548963320197,227.07513988830985 435.44275762918767,232.85548664539 434.8647229534797,236.90172937534606 434.8647229534797,239.79190275388618 434.8647229534797,243.83814548384225 434.8647229534797,247.30635353809032 435.44275762918767,249.61849224092236 436.5988269806037,250.19652691663038 437.17686165631176,250.19652691663038 439.4890003591438,250.77456159233844 442.95720841339187,250.77456159233844 447.5814858190559,250.77456159233844 453.9398672518441,248.46242288950634 459.72021400892424,245.5722495109663 465.50056076600436,241.5260067810102 471.85894219879253,237.47976405105408 477.0612542801647,234.58959067251402 480.52946233441276,232.27745196968198 482.26356636153685,231.12138261826595 482.8416010372448,230.54334794255794 482.8416010372448,231.12138261826595 482.26356636153685,233.433521321098 481.6855316858288,236.90172937534606 480.52946233441276,240.3699374295942 478.79535830728867,244.41618015955027 477.0612542801647,250.77456159233844 473.5930462259166,260.60115107937463 468.96876882025254,276.78612199919905 465.50056076600436,290.08091954048336 463.76645673888044,297.0173356489795 462.0323527117563,301.0635783789356 461.45431803604833,304.5317864331837 459.72021400892424,308.57802916313983 458.5641446575082,312.0462372173879 457.40807530609214,313.7803412445119 456.8300406303843,313.7803412445119 456.8300406303843,314.3583759202199 456.2520059546762,313.7803412445119 455.09593660326016,309.1560638388478 453.9398672518441,302.21964773035165 452.7837979004281,293.54912759473143 451.6277285490121,287.76878083765126 451.6277285490121,282.56646875627916 452.20576322472004,278.5202260263231 454.51790192755203,273.89594862065894 457.40807530609214,269.27167121499485 460.8762833603403,264.64739380933077 464.3444914145884,261.75722043079065 467.81269946883646,259.4450817279586 471.2809075230846,258.2890123765426 474.74911557733265,257.13294302512656 477.63928895587264,255.97687367371054 481.1074970101207,255.3988389980025 482.8416010372448,255.3988389980025 484.5757050643689,256.55490834941855 485.7317744157849,258.2890123765426 486.88784376720093,260.60115107937463 488.6219477943249,262.33525510649866 489.77801714574093,264.06935913362275 491.512121172865,266.3814978364548 492.090155848573,269.27167121499485 492.090155848573,271.0057752421189 492.090155848573,272.7398792692429 492.090155848573,273.31791394495093 491.512121172865,276.208087323491 489.77801714574093,277.9421913506151 488.6219477943249,279.0982607020311 486.30980909149287,279.6762953777391 482.26356636153685,280.83236472915513 477.0612542801647,280.83236472915513 470.12483817166856,279.6762953777391 462.61038738746436,277.36415667490706 452.7837979004281,275.630052647783 442.95720841339187,273.31791394495093 433.7086536020637,273.31791394495093 423.88206411502745,273.31791394495093 414.0554746279912,273.31791394495093 403.65085046524695,273.31791394495093 390.93408759967065,274.47398329636695 374.17108200413827,275.630052647783 356.25200705718987,276.78612199919905 339.4890014616575,277.9421913506151 322.147961190417,278.5202260263231 307.11905962200865,278.5202260263231 289.7780193507683,277.9421913506151 274.17108310665196,277.36415667490706 259.72021621395163,277.36415667490706 248.15952269979132,277.9421913506151 239.4890025641711,277.9421913506151 232.55258645567497,277.9421913506151 225.61617034717878,277.9421913506151 219.83582359009867,277.9421913506151 214.0554768330185,277.9421913506151 209.43119942735441,279.0982607020311 205.38495669739834,279.0982607020311 202.49478331885823,279.6762953777391 199.02657526461016,279.6762953777391 194.98033253465408,280.2543300534471 190.93408980469795,280.83236472915513 186.88784707474187,281.41039940486314 183.4196390204938,281.98843408057115 180.52946564195375,281.98843408057115 178.21732693912165,282.56646875627916 175.9051882362896,282.56646875627916 174.17108420916557,282.56646875627916 171.85894550633353,282.56646875627916 170.1248414792095,282.56646875627916 168.9687721277935,282.56646875627916 167.81270277637745,282.56646875627916 167.23466810066947,282.56646875627916 166.65663342496143,282.56646875627916 166.07859874925342,282.56646875627916 165.50056407354535,282.56646875627916 164.92252939783734,282.56646875627916 164.92252939783734,283.1445034319872 164.3444947221293,283.1445034319872 163.76646004642132,283.1445034319872 163.1884253707133,283.1445034319872 " style="color: rgb(0, 0, 0);"/></g></svg>